<?xml version="1.0" encoding="UTF-8" standalone="no"?><!DOCTYPE svg PUBLIC "-//W3C//DTD SVG 1.1//EN" "http://www.w3.org/Graphics/SVG/1.1/DTD/svg11.dtd"><!-- Generated by graphviz version 2.40.1 (20161225.0304)
 --><!-- Title: walking_skeleton_refactored Pages: 1 --><svg xmlns="http://www.w3.org/2000/svg" xmlns:xlink="http://www.w3.org/1999/xlink" width="284pt" height="228pt" viewBox="0.00 0.00 284.08 228.40">
<g id="graph0" class="graph" transform="scale(1 1) rotate(0) translate(4 224.4)">
<title>walking_skeleton_refactored</title>
<polygon fill="#ffffff" stroke="transparent" points="-4,4 -4,-224.4 280.0764,-224.4 280.0764,4 -4,4"/>
<!-- 1 -->
<g id="node1" class="node">
<title>1</title>
<polygon fill="#f2f2f2" stroke="#000000" points="26.1122,-111.9 26.1122,-219.9 158.8512,-219.9 158.8512,-111.9 26.1122,-111.9"/>
<text text-anchor="middle" x="92.4817" y="-203.3" font-family="Times,serif" font-size="14.00" fill="#000000">YatzyConsoleApp</text>
<polyline fill="none" stroke="#000000" points="26.1122,-195.1 158.8512,-195.1 "/>
<text text-anchor="middle" x="92.4817" y="-178.5" font-family="Times,serif" font-size="14.00" fill="#000000"> </text>
<polyline fill="none" stroke="#000000" points="26.1122,-170.3 158.8512,-170.3 "/>
<text text-anchor="start" x="34.1122" y="-153.7" font-family="Times,serif" font-size="14.00" fill="#000000">+start()</text>
<text text-anchor="start" x="34.1122" y="-136.9" font-family="Times,serif" font-size="14.00" fill="#000000">+isFinished()</text>
<text text-anchor="middle" x="92.4817" y="-120.1" font-family="Times,serif" font-size="14.00" fill="#000000">+waitForUserInput()</text>
</g>
<!-- 2 -->
<g id="node2" class="node">
<title>2</title>
<polygon fill="#f2f2f2" stroke="#000000" points="0,-.5 0,-74.9 82.9634,-74.9 82.9634,-.5 0,-.5"/>
<text text-anchor="middle" x="41.4817" y="-58.3" font-family="Times,serif" font-size="14.00" fill="#000000">TextInput</text>
<polyline fill="none" stroke="#000000" points="0,-50.1 82.9634,-50.1 "/>
<text text-anchor="middle" x="41.4817" y="-33.5" font-family="Times,serif" font-size="14.00" fill="#000000"> </text>
<polyline fill="none" stroke="#000000" points="0,-25.3 82.9634,-25.3 "/>
<text text-anchor="middle" x="41.4817" y="-8.7" font-family="Times,serif" font-size="14.00" fill="#000000">+readLine()</text>
</g>
<!-- 1&#45;&gt;2 -->
<g id="edge1" class="edge">
<title>1-&gt;2</title>
<path fill="none" stroke="#000000" d="M70.8531,-111.5317C67.2644,-102.5107 63.571,-93.2264 60.0661,-84.4161"/>
<polygon fill="#000000" stroke="#000000" points="63.2994,-83.0749 56.3508,-75.0769 56.7952,-85.6624 63.2994,-83.0749"/>
</g>
<!-- 3 -->
<g id="node3" class="node">
<title>3</title>
<polygon fill="#f2f2f2" stroke="#000000" points="100.6634,-.5 100.6634,-74.9 188.3,-74.9 188.3,-.5 100.6634,-.5"/>
<text text-anchor="middle" x="144.4817" y="-58.3" font-family="Times,serif" font-size="14.00" fill="#000000">TextOutput</text>
<polyline fill="none" stroke="#000000" points="100.6634,-50.1 188.3,-50.1 "/>
<text text-anchor="middle" x="144.4817" y="-33.5" font-family="Times,serif" font-size="14.00" fill="#000000"> </text>
<polyline fill="none" stroke="#000000" points="100.6634,-25.3 188.3,-25.3 "/>
<text text-anchor="middle" x="144.4817" y="-8.7" font-family="Times,serif" font-size="14.00" fill="#000000">+writeLine()</text>
</g>
<!-- 1&#45;&gt;3 -->
<g id="edge2" class="edge">
<title>1-&gt;3</title>
<path fill="none" stroke="#000000" d="M114.5344,-111.5317C118.1934,-102.5107 121.9593,-93.2264 125.5329,-84.4161"/>
<polygon fill="#000000" stroke="#000000" points="128.8056,-85.6592 129.321,-75.0769 122.3189,-83.028 128.8056,-85.6592"/>
</g>
<!-- 4 -->
<g id="node4" class="node">
<title>4</title>
<polygon fill="#f2f2f2" stroke="#000000" points="176.887,-128.7 176.887,-203.1 276.0764,-203.1 276.0764,-128.7 176.887,-128.7"/>
<text text-anchor="middle" x="226.4817" y="-186.5" font-family="Times,serif" font-size="14.00" fill="#000000">ScoreCategory</text>
<polyline fill="none" stroke="#000000" points="176.887,-178.3 276.0764,-178.3 "/>
<text text-anchor="middle" x="226.4817" y="-161.7" font-family="Times,serif" font-size="14.00" fill="#000000">+CHANCE</text>
<polyline fill="none" stroke="#000000" points="176.887,-153.5 276.0764,-153.5 "/>
<text text-anchor="middle" x="226.4817" y="-136.9" font-family="Times,serif" font-size="14.00" fill="#000000"> </text>
</g>
</g>
</svg>