<?xml version="1.0" encoding="UTF-8" standalone="no"?><!DOCTYPE svg PUBLIC "-//W3C//DTD SVG 1.1//EN" "http://www.w3.org/Graphics/SVG/1.1/DTD/svg11.dtd"><!-- Generated by graphviz version 2.40.1 (20161225.0304)
 --><!-- Title: walking_skeleton Pages: 1 --><svg xmlns="http://www.w3.org/2000/svg" xmlns:xlink="http://www.w3.org/1999/xlink" width="294pt" height="212pt" viewBox="0.00 0.00 294.31 211.60">
<g id="graph0" class="graph" transform="scale(1 1) rotate(0) translate(4 207.6)">
<title>walking_skeleton</title>
<polygon fill="#ffffff" stroke="transparent" points="-4,4 -4,-207.6 290.3135,-207.6 290.3135,4 -4,4"/>
<!-- 1 -->
<g id="node1" class="node">
<title>1</title>
<polygon fill="#f2f2f2" stroke="#000000" points="36.3493,-111.9 36.3493,-203.1 169.0883,-203.1 169.0883,-111.9 36.3493,-111.9"/>
<text text-anchor="middle" x="102.7188" y="-186.5" font-family="Times,serif" font-size="14.00" fill="#000000">YatzyConsoleApp</text>
<polyline fill="none" stroke="#000000" points="36.3493,-178.3 169.0883,-178.3 "/>
<text text-anchor="middle" x="102.7188" y="-161.7" font-family="Times,serif" font-size="14.00" fill="#000000"> </text>
<polyline fill="none" stroke="#000000" points="36.3493,-153.5 169.0883,-153.5 "/>
<text text-anchor="start" x="44.3493" y="-136.9" font-family="Times,serif" font-size="14.00" fill="#000000">+isFinished()</text>
<text text-anchor="middle" x="102.7188" y="-120.1" font-family="Times,serif" font-size="14.00" fill="#000000">+waitForUserInput()</text>
</g>
<!-- 2 -->
<g id="node2" class="node">
<title>2</title>
<polygon fill="#f2f2f2" stroke="#000000" points="0,-.5 0,-74.9 91.4376,-74.9 91.4376,-.5 0,-.5"/>
<text text-anchor="middle" x="45.7188" y="-58.3" font-family="Times,serif" font-size="14.00" fill="#000000">ConsoleInput</text>
<polyline fill="none" stroke="#000000" points="0,-50.1 91.4376,-50.1 "/>
<text text-anchor="middle" x="45.7188" y="-33.5" font-family="Times,serif" font-size="14.00" fill="#000000"> </text>
<polyline fill="none" stroke="#000000" points="0,-25.3 91.4376,-25.3 "/>
<text text-anchor="middle" x="45.7188" y="-8.7" font-family="Times,serif" font-size="14.00" fill="#000000">+readLine()</text>
</g>
<!-- 1&#45;&gt;2 -->
<g id="edge1" class="edge">
<title>1-&gt;2</title>
<path fill="none" stroke="#000000" d="M81.0069,-111.867C76.7105,-102.837 72.1955,-93.3476 67.8843,-84.2864"/>
<polygon fill="#000000" stroke="#000000" points="70.9399,-82.5621 63.4829,-75.0358 64.6189,-85.5696 70.9399,-82.5621"/>
</g>
<!-- 3 -->
<g id="node3" class="node">
<title>3</title>
<polygon fill="#f2f2f2" stroke="#000000" points="109.3317,-.5 109.3317,-74.9 210.1059,-74.9 210.1059,-.5 109.3317,-.5"/>
<text text-anchor="middle" x="159.7188" y="-58.3" font-family="Times,serif" font-size="14.00" fill="#000000">ConsoleOutput</text>
<polyline fill="none" stroke="#000000" points="109.3317,-50.1 210.1059,-50.1 "/>
<text text-anchor="middle" x="159.7188" y="-33.5" font-family="Times,serif" font-size="14.00" fill="#000000"> </text>
<polyline fill="none" stroke="#000000" points="109.3317,-25.3 210.1059,-25.3 "/>
<text text-anchor="middle" x="159.7188" y="-8.7" font-family="Times,serif" font-size="14.00" fill="#000000">+writeLine()</text>
</g>
<!-- 1&#45;&gt;3 -->
<g id="edge2" class="edge">
<title>1-&gt;3</title>
<path fill="none" stroke="#000000" d="M124.4307,-111.867C128.7271,-102.837 133.2421,-93.3476 137.5533,-84.2864"/>
<polygon fill="#000000" stroke="#000000" points="140.8187,-85.5696 141.9547,-75.0358 134.4977,-82.5621 140.8187,-85.5696"/>
</g>
<!-- 4 -->
<g id="node4" class="node">
<title>4</title>
<polygon fill="#f2f2f2" stroke="#000000" points="187.1241,-120.3 187.1241,-194.7 286.3135,-194.7 286.3135,-120.3 187.1241,-120.3"/>
<text text-anchor="middle" x="236.7188" y="-178.1" font-family="Times,serif" font-size="14.00" fill="#000000">ScoreCategory</text>
<polyline fill="none" stroke="#000000" points="187.1241,-169.9 286.3135,-169.9 "/>
<text text-anchor="middle" x="236.7188" y="-153.3" font-family="Times,serif" font-size="14.00" fill="#000000">+CHANCE</text>
<polyline fill="none" stroke="#000000" points="187.1241,-145.1 286.3135,-145.1 "/>
<text text-anchor="middle" x="236.7188" y="-128.5" font-family="Times,serif" font-size="14.00" fill="#000000"> </text>
</g>
</g>
</svg>